<svg xmlns="http://www.w3.org/2000/svg" xmlns:xlink="http://www.w3.org/1999/xlink" width="150" height="75" viewBox="0 0 150 75"><rect width="100%" height="100%" fill="#DDDDDD"/><path d="M34.99 44.23L38.24 44.23L38.24 46.54L28.24 46.54L28.24 44.23L31.90 44.23L31.90 33.69Q31.90 33.06 31.94 32.40L31.94 32.40L29.34 34.58Q29.11 34.75 28.89 34.79Q28.68 34.84 28.48 34.80Q28.29 34.76 28.14 34.67Q27.99 34.58 27.91 34.46L27.91 34.46L26.94 33.13L32.45 28.44L34.99 28.44L34.99 44.23ZM45.51 31.26L44.88 35.02Q45.47 34.90 46.02 34.84Q46.57 34.79 47.09 34.79L47.09 34.79Q48.51 34.79 49.60 35.21Q50.69 35.64 51.42 36.39Q52.16 37.14 52.54 38.14Q52.91 39.15 52.91 40.31L52.91 40.31Q52.91 41.75 52.41 42.94Q51.90 44.13 51 44.97Q50.10 45.81 48.87 46.27Q47.64 46.74 46.19 46.74L46.19 46.74Q45.34 46.74 44.57 46.56Q43.81 46.39 43.14 46.09Q42.47 45.80 41.91 45.42Q41.34 45.04 40.89 44.61L40.89 44.61L41.84 43.30Q42.14 42.88 42.63 42.88L42.63 42.88Q42.94 42.88 43.26 43.08Q43.59 43.27 44.01 43.51Q44.42 43.75 44.99 43.95Q45.56 44.15 46.36 44.15L46.36 44.15Q47.21 44.15 47.86 43.88Q48.51 43.60 48.94 43.11Q49.38 42.61 49.59 41.93Q49.81 41.25 49.81 40.45L49.81 40.45Q49.81 38.98 48.96 38.14Q48.10 37.31 46.42 37.31L46.42 37.31Q45.14 37.31 43.79 37.79L43.79 37.79L41.86 37.24L43.36 28.46L52.29 28.46L52.29 29.78Q52.29 30.44 51.88 30.85Q51.46 31.26 50.47 31.26L50.47 31.26L45.51 31.26ZM68.17 37.50L68.17 37.50Q68.17 39.86 67.67 41.61Q67.16 43.35 66.27 44.49Q65.38 45.63 64.16 46.18Q62.94 46.74 61.52 46.74L61.52 46.74Q60.11 46.74 58.91 46.18Q57.70 45.63 56.81 44.49Q55.92 43.35 55.42 41.61Q54.92 39.86 54.92 37.50L54.92 37.50Q54.92 35.13 55.42 33.39Q55.92 31.65 56.81 30.51Q57.70 29.38 58.91 28.82Q60.11 28.26 61.52 28.26L61.52 28.26Q62.94 28.26 64.16 28.82Q65.38 29.38 66.27 30.51Q67.16 31.65 67.67 33.39Q68.17 35.13 68.17 37.50ZM64.99 37.50L64.99 37.50Q64.99 35.54 64.70 34.25Q64.41 32.96 63.93 32.20Q63.45 31.44 62.82 31.13Q62.20 30.83 61.52 30.83L61.52 30.83Q60.86 30.83 60.24 31.13Q59.63 31.44 59.15 32.20Q58.67 32.96 58.39 34.25Q58.11 35.54 58.11 37.50L58.11 37.50Q58.11 39.46 58.39 40.75Q58.67 42.04 59.15 42.80Q59.63 43.56 60.24 43.87Q60.86 44.18 61.52 44.18L61.52 44.18Q62.20 44.18 62.82 43.87Q63.45 43.56 63.93 42.80Q64.41 42.04 64.70 40.75Q64.99 39.46 64.99 37.50ZM88.03 42.40L86.39 44.01L82.15 39.77L77.88 44.04L76.24 42.43L80.51 38.14L76.44 34.06L78.06 32.44L82.14 36.51L86.19 32.46L87.84 34.09L83.78 38.15L88.03 42.40ZM96.61 28.46L109.10 28.46L109.10 29.80Q109.10 30.40 108.98 30.77Q108.85 31.14 108.73 31.39L108.73 31.39L101.88 45.49Q101.66 45.93 101.28 46.23Q100.89 46.54 100.24 46.54L100.24 46.54L98 46.54L104.99 32.73Q105.23 32.30 105.46 31.94Q105.69 31.59 105.98 31.26L105.98 31.26L97.33 31.26Q97.04 31.26 96.83 31.05Q96.61 30.84 96.61 30.55L96.61 30.55L96.61 28.46ZM115.66 31.26L115.03 35.02Q115.63 34.90 116.17 34.84Q116.73 34.79 117.24 34.79L117.24 34.79Q118.66 34.79 119.75 35.21Q120.84 35.64 121.58 36.39Q122.31 37.14 122.69 38.14Q123.06 39.15 123.06 40.31L123.06 40.31Q123.06 41.75 122.56 42.94Q122.05 44.13 121.15 44.97Q120.25 45.81 119.02 46.27Q117.79 46.74 116.34 46.74L116.34 46.74Q115.49 46.74 114.73 46.56Q113.96 46.39 113.29 46.09Q112.63 45.80 112.06 45.42Q111.49 45.04 111.04 44.61L111.04 44.61L111.99 43.30Q112.29 42.88 112.78 42.88L112.78 42.88Q113.09 42.88 113.41 43.08Q113.74 43.27 114.16 43.51Q114.58 43.75 115.14 43.95Q115.71 44.15 116.51 44.15L116.51 44.15Q117.36 44.15 118.01 43.88Q118.66 43.60 119.09 43.11Q119.53 42.61 119.74 41.93Q119.96 41.25 119.96 40.45L119.96 40.45Q119.96 38.98 119.11 38.14Q118.25 37.31 116.58 37.31L116.58 37.31Q115.29 37.31 113.94 37.79L113.94 37.79L112.01 37.24L113.51 28.46L122.44 28.46L122.44 29.78Q122.44 30.44 122.03 30.85Q121.61 31.26 120.63 31.26L120.63 31.26L115.66 31.26Z" fill="#999999"/></svg>